<svg width="185" height="185" viewBox="0 0 185 185" fill="none" xmlns="http://www.w3.org/2000/svg">
<path d="M0 92.5C0 41.4137 41.4137 0 92.5 0C143.586 0 185 41.4137 185 92.5C185 143.586 143.586 185 92.5 185C41.4137 185 0 143.586 0 92.5Z" fill="black"/>
<path d="M67.2795 75.9073L78.1771 57.033L117.328 125.021C124.997 141.054 104.21 150.593 96.9453 138.619L68.2885 89.099C65.3948 84.1783 65.4632 79.9663 67.2795 75.9073Z" fill="white"/>
<path d="M100.78 49.3209C100.78 53.9164 97.0752 57.6418 92.5056 57.6418C87.9359 57.6418 84.2314 53.9164 84.2314 49.3209C84.2314 44.7254 87.9359 41 92.5056 41C97.0752 41 100.78 44.7254 100.78 49.3209Z" fill="#1C8DE3"/>
</svg>
